# xmcd
#
# Track frame offsets:
#	150
#	20337
#	30497
#	44132
#	67405
#	81527
#	102425
#	115577
#	131500
#	145997
#	164872
#
# Disc length: 2353
#
# Revision: 3
# Processed by: cddbd v1.5.2PL0 Copyright (c) Steve Scherf et al.
# Submitted via: EasyCDDAExtractor 5.0.5.1
# Normalized: r2:DSETVAR1
#
DISCID=a6092f0b
DTITLE=Various / Motown Legends: Duets
DYEAR=1995
DGENRE=Misc
TTITLE0=Diana Ross & Lionel Richie / Endless Love
TTITLE1=Marvin Gaye & Tammi Terrell / Ain't Nothing Like The Real Thing
TTITLE2=The Supremes & Four Tops / Hello Stranger
TTITLE3=Rick James featuring Smokey Robinson / Ebony Eyes
TTITLE4=The Supremes & The Temptations / I'm Gonna Make You Love Me
TTITLE5=Billy Preston & Syreeta / Searchin'
TTITLE6=David & Jimmy Ruffin / Your Love Was Worth Waiting For
TTITLE7=The Supremes & The Temptations / A Place In The Sun
TTITLE8=Marvin Gaye & Kim Weston / Baby Say Yes
TTITLE9=Marvin Gaye & Diana Ross / Just Say, Just Say
TTITLE10=Marvin Gaye & Mary Wells / I Love You For Sentimental Reasons
EXTD=
EXTT0=
EXTT1=
EXTT2=
EXTT3=
EXTT4=
EXTT5=
EXTT6=
EXTT7=
EXTT8=
EXTT9=
EXTT10=
PLAYORDER=
.
